<?xml version="1.0" encoding="iso-8859-1"?>
<!-- Uploaded to: SVG Repo, www.svgrepo.com, Generator: SVG Repo Mixer Tools -->
<svg fill="#000000" height="800px" width="800px" version="1.1" id="Layer_1" xmlns="http://www.w3.org/2000/svg" xmlns:xlink="http://www.w3.org/1999/xlink" 
	 viewBox="0 0 512 512" xml:space="preserve">
<g>
	<g>
		<path d="M255.856,129.6c-79.632,0-144.416,64.768-144.416,144.4s64.768,144.416,144.416,144.416S400.288,353.648,400.272,274
			C400.272,194.384,335.488,129.6,255.856,129.6z M255.856,386.416c-61.984,0-112.416-50.432-112.416-112.416
			s50.432-112.4,112.416-112.4S368.272,212.016,368.272,274S317.84,386.416,255.856,386.416z"/>
	</g>
</g>
<g>
	<g>
		<path d="M464.48,112h-90.624l-14.048-34.576C351.728,60.656,331.488,48,312.72,48H199.104c-18.768,0-39.008,12.656-47.504,30.352
			L137.952,112H47.344C21.232,112,0,132.672,0,158.096V418.4C0,443.552,21.232,464,47.344,464H464.48
			c26.208,0,47.52-20.448,47.52-45.584v-260.32C512,132.672,490.688,112,464.48,112z M480,418.4c0,8.128-8.016,13.6-15.52,13.6
			H47.344C39.936,432,32,426.528,32,418.416v-260.32C32,150.448,39.024,144,47.344,144h101.392c6.512,0,12.368-3.952,14.816-9.984
			l17.264-42.688C183.584,85.616,192.64,80,199.104,80H312.72c6.464,0,15.52,5.616,17.856,10.384l17.68,43.632
			c2.464,6.032,8.32,9.984,14.832,9.984H464.48c8.272,0,15.52,6.576,15.52,14.096V418.4z"/>
	</g>
</g>
<g>
	<g>
		<circle cx="63.936" cy="176.16" r="16.304"/>
	</g>
</g>
<g>
	<g>
		<path d="M255.856,209.648c-35.472,0-64.352,28.864-64.352,64.352c0,35.488,28.864,64.368,64.352,64.368
			s64.368-28.864,64.352-64.368C320.208,238.528,291.328,209.648,255.856,209.648z M255.856,306.368
			c-17.84,0-32.352-14.512-32.352-32.368c0-17.84,14.512-32.352,32.352-32.352S288.224,256.16,288.208,274
			C288.208,291.856,273.696,306.368,255.856,306.368z"/>
	</g>
</g>
</svg>